<?xml version="1.0" standalone="no"?>
<!DOCTYPE svg PUBLIC "-//W3C//DTD SVG 20010904//EN"
 "http://www.w3.org/TR/2001/REC-SVG-20010904/DTD/svg10.dtd">
<svg version="1.0" xmlns="http://www.w3.org/2000/svg"
 width="996.000000pt" height="112.000000pt" viewBox="0 0 996.000000 112.000000"
 preserveAspectRatio="xMidYMid meet">
<metadata>
Created by potrace 1.16, written by Peter Selinger 2001-2019
</metadata>
<g transform="translate(0.000000,112.000000) scale(0.100000,-0.100000)"
fill="#000000" stroke="none">
<path d="M0 560 l0 -560 565 0 565 0 0 560 0 560 -565 0 -565 0 0 -560z m611
302 l12 -53 -41 -40 c-57 -57 -75 -100 -70 -165 3 -30 1 -54 -3 -54 -3 0 -23
18 -43 40 -29 32 -36 48 -36 81 0 49 13 76 80 159 29 36 57 75 63 88 13 29 22
16 38 -56z m107 -70 l4 -59 -55 -31 c-57 -32 -85 -63 -110 -122 l-14 -35 -8
38 c-12 63 9 110 86 193 38 42 69 80 69 87 0 8 3 8 12 -1 6 -6 14 -38 16 -70z
m-292 -39 c-9 -19 -16 -56 -16 -84 0 -44 4 -54 41 -94 l42 -45 -34 6 c-52 10
-88 32 -110 67 -26 42 -21 76 28 173 l37 77 14 -34 c12 -29 12 -38 -2 -66z
m350 -76 c-24 -82 -76 -127 -165 -142 l-44 -7 7 28 c14 56 47 94 117 134 38
23 74 51 81 63 l13 22 3 -23 c2 -12 -4 -46 -12 -75z m-197 -269 c-1 -70 -35
-283 -44 -283 -9 0 -15 37 -39 253 l-7 62 46 0 c44 0 45 0 44 -32z"/>
<path d="M3590 560 c0 -491 2 -560 15 -560 13 0 15 69 15 560 0 491 -2 560
-15 560 -13 0 -15 -69 -15 -560z"/>
<path d="M1410 565 l0 -325 75 0 75 0 2 194 3 194 148 -194 148 -194 65 0 64
0 0 325 0 325 -75 0 -75 0 -2 -186 -3 -187 -143 187 -143 186 -69 0 -70 0 0
-325z"/>
<path d="M2053 878 c2 -7 59 -98 126 -203 l121 -190 0 -122 0 -123 75 0 75 0
0 131 0 132 116 179 c63 99 118 186 121 194 4 11 -11 14 -80 14 l-84 0 -73
-120 c-40 -66 -76 -120 -79 -120 -3 0 -37 54 -76 120 l-70 120 -89 0 c-66 0
-87 -3 -83 -12z"/>
<path d="M2740 685 c0 -226 8 -282 50 -348 43 -68 119 -102 230 -102 101 0
149 15 203 64 75 67 82 94 85 359 l4 232 -75 0 -76 0 -3 -212 c-3 -239 -9
-262 -72 -292 -65 -31 -136 -12 -171 47 -18 29 -20 55 -23 245 l-3 212 -75 0
-74 0 0 -205z"/>
<path d="M3910 755 l0 -135 35 0 c34 0 35 1 35 40 0 29 4 40 15 40 8 0 27 -18
41 -40 24 -36 30 -40 70 -40 l44 0 -32 45 -32 45 22 15 c26 19 37 70 23 108
-15 38 -65 57 -151 57 l-70 0 0 -135z"/>
<path d="M4231 872 c-93 -50 -94 -189 -2 -240 128 -72 271 61 203 187 -23 43
-74 71 -127 71 -22 0 -56 -8 -74 -18z m102 -53 c24 -11 47 -47 47 -74 0 -27
-45 -67 -75 -67 -30 0 -75 40 -75 67 0 26 22 63 44 73 28 14 31 14 59 1z"/>
<path d="M4480 756 l0 -136 95 0 c90 0 98 2 122 26 20 20 24 31 19 57 -3 18
-14 38 -23 45 -13 9 -14 15 -5 24 19 19 14 73 -9 94 -17 15 -40 20 -110 22
l-89 4 0 -136z"/>
<path d="M4750 755 l0 -135 105 0 105 0 0 30 0 30 -75 0 c-68 0 -75 2 -75 20
0 18 7 20 65 20 l65 0 0 30 0 30 -65 0 c-63 0 -65 1 -65 25 0 24 2 25 70 25
l70 0 0 30 0 30 -100 0 -100 0 0 -135z"/>
<path d="M4990 756 l0 -136 35 0 c34 0 35 1 35 40 0 32 4 40 18 40 9 0 28 -18
42 -40 23 -37 28 -40 68 -40 l43 0 -29 43 -30 42 24 28 c32 37 32 87 0 123
-21 26 -30 28 -115 32 l-91 4 0 -136z"/>
<path d="M5240 855 c0 -33 2 -35 35 -35 l35 0 0 -100 0 -100 35 0 35 0 0 100
0 100 40 0 c39 0 40 1 40 35 l0 35 -110 0 -110 0 0 -35z"/>
<path d="M5590 755 l0 -135 35 0 35 0 0 50 0 50 65 0 65 0 0 30 0 30 -65 0
c-58 0 -65 2 -65 20 0 18 7 20 70 20 l70 0 0 35 0 35 -105 0 -105 0 0 -135z"/>
<path d="M5984 866 c3 -14 25 -77 47 -141 39 -109 42 -115 69 -115 26 0 30 6
56 81 l28 81 26 -78 c25 -74 28 -79 57 -82 l31 -3 42 128 c24 70 45 134 48
141 3 10 -5 13 -33 10 -37 -3 -38 -4 -57 -68 -11 -36 -23 -68 -27 -73 -4 -4
-18 26 -31 68 -23 72 -25 75 -55 75 -30 0 -32 -3 -55 -75 -13 -42 -27 -72 -31
-68 -4 5 -16 37 -27 73 -19 64 -20 65 -57 68 -36 3 -37 2 -31 -22z"/>
<path d="M6432 793 c-23 -54 -48 -115 -57 -135 l-15 -38 35 0 c28 0 38 5 47
25 10 22 17 25 64 25 49 0 54 -2 60 -25 5 -21 12 -25 46 -25 22 0 38 4 36 9
-1 4 -27 65 -57 135 -53 124 -55 126 -86 126 -31 0 -33 -3 -73 -97z"/>
<path d="M6731 872 c-93 -50 -93 -193 0 -244 41 -23 124 -20 163 5 24 16 26
24 26 82 l0 65 -60 0 -60 0 0 -30 c0 -25 4 -30 25 -30 35 0 34 -35 -1 -44 -55
-14 -107 49 -85 103 18 42 61 58 103 37 31 -16 33 -16 50 6 24 31 23 35 -12
53 -39 20 -108 19 -149 -3z"/>
<path d="M6960 755 l0 -135 35 0 35 0 0 71 0 71 53 -68 c43 -57 58 -70 85 -72
l32 -3 0 135 0 136 -35 0 -34 0 -3 -70 -3 -71 -53 71 c-44 59 -57 70 -82 70
l-30 0 0 -135z"/>
<path d="M7250 755 l0 -135 105 0 105 0 0 30 0 30 -75 0 c-68 0 -75 2 -75 20
0 18 7 20 65 20 l65 0 0 30 0 30 -65 0 c-63 0 -65 1 -65 25 0 24 2 25 75 25
l75 0 0 30 0 30 -105 0 -105 0 0 -135z"/>
<path d="M7490 756 l0 -136 35 0 c34 0 35 1 35 40 0 32 4 40 18 40 9 0 28 -18
42 -40 23 -37 28 -40 68 -40 l43 0 -29 43 -30 42 24 28 c32 37 32 87 0 123
-21 26 -30 28 -115 32 l-91 4 0 -136z"/>
<path d="M7913 870 c-41 -25 -63 -68 -63 -122 0 -111 106 -169 218 -118 l42
19 0 66 0 65 -65 0 -65 0 0 -30 c0 -27 3 -30 30 -30 23 0 30 -5 30 -19 0 -27
-43 -35 -80 -16 -53 27 -52 104 2 134 24 14 30 14 63 -2 36 -17 37 -17 55 5
26 31 25 35 -10 53 -41 21 -118 19 -157 -5z"/>
<path d="M8150 755 l0 -135 30 0 c28 0 30 2 30 40 0 33 3 40 20 40 12 0 30
-16 46 -40 23 -35 31 -40 65 -40 22 0 39 2 39 5 0 3 -12 23 -27 46 -23 36 -24
41 -10 52 28 21 39 66 26 104 -15 45 -57 63 -149 63 l-70 0 0 -135z"/>
<path d="M8487 858 c-8 -18 -33 -77 -56 -130 -22 -53 -41 -99 -41 -102 0 -4
15 -6 33 -6 26 0 36 6 45 25 10 22 18 25 66 25 49 0 54 -2 60 -25 5 -21 12
-25 45 -25 l39 0 -57 133 c-55 127 -58 132 -89 135 -27 3 -33 -1 -45 -30z"/>
<path d="M8700 756 l0 -136 85 0 c83 0 86 1 121 33 31 28 37 42 41 84 4 41 1
59 -16 86 -27 45 -61 59 -153 65 l-78 5 0 -137z"/>
<path d="M8982 780 c3 -104 4 -111 31 -137 24 -24 35 -28 87 -28 52 0 63 4 87
28 27 26 28 33 31 137 l4 110 -36 0 -36 0 0 -93 c0 -101 -7 -117 -50 -117 -43
0 -50 16 -50 117 l0 93 -36 0 -36 0 4 -110z"/>
<path d="M9340 864 c-6 -14 -30 -72 -55 -130 -25 -58 -45 -108 -45 -110 0 -2
16 -4 35 -4 29 0 37 5 45 25 9 22 15 25 64 25 49 0 54 -2 60 -25 5 -21 12 -25
46 -25 l39 0 -35 83 c-20 45 -46 106 -57 134 -20 49 -25 53 -55 53 -26 0 -35
-5 -42 -26z"/>
<path d="M9500 855 c0 -34 1 -35 40 -35 l40 0 0 -100 0 -100 35 0 35 0 0 100
0 100 40 0 c39 0 40 1 40 35 l0 35 -115 0 -115 0 0 -35z"/>
<path d="M9760 755 l0 -135 100 0 100 0 0 30 0 30 -70 0 c-63 0 -70 2 -70 20
0 18 7 20 65 20 l65 0 0 30 0 30 -65 0 c-63 0 -65 1 -65 25 0 24 2 25 70 25
l70 0 0 30 0 30 -100 0 -100 0 0 -135z"/>
<path d="M3954 510 c-47 -19 -69 -86 -41 -124 7 -10 37 -25 67 -35 32 -11 55
-24 55 -32 0 -21 -39 -23 -75 -4 -30 15 -33 15 -51 -1 -26 -23 -24 -31 14 -55
25 -16 44 -19 90 -16 66 4 85 18 94 69 4 30 1 41 -20 62 -13 13 -43 30 -65 36
-45 12 -62 28 -42 40 14 9 49 2 69 -14 10 -8 18 -5 32 13 26 32 25 37 -21 55
-44 18 -74 19 -106 6z"/>
<path d="M4204 501 c-97 -44 -99 -197 -3 -247 45 -23 132 -15 162 14 l21 22
-20 21 c-20 20 -23 20 -52 5 -42 -22 -59 -20 -87 9 -30 30 -32 64 -4 99 23 29
65 35 99 14 17 -11 23 -9 41 9 26 25 19 40 -27 59 -45 19 -81 17 -130 -5z"/>
<path d="M4753 501 c-51 -24 -73 -63 -73 -131 0 -43 5 -55 34 -88 34 -36 36
-37 106 -37 70 0 72 1 106 37 30 33 34 44 34 90 0 119 -96 179 -207 129z m117
-71 c30 -30 27 -83 -6 -109 -35 -27 -59 -26 -89 4 -48 47 -20 125 45 125 17 0
39 -9 50 -20z"/>
<path d="M5065 501 c-49 -22 -75 -65 -75 -123 0 -55 16 -86 60 -116 29 -20 44
-23 93 -20 46 4 63 10 87 33 76 73 53 198 -43 234 -40 16 -76 13 -122 -8z
m115 -71 c33 -33 30 -75 -6 -107 -32 -30 -59 -29 -89 2 -48 47 -20 125 45 125
17 0 39 -9 50 -20z"/>
<path d="M5705 500 c-50 -24 -75 -65 -75 -120 0 -83 56 -140 138 -140 66 0
107 24 133 77 36 74 11 148 -62 185 -45 23 -85 23 -134 -2z m117 -67 c48 -55
13 -133 -58 -133 -25 0 -64 47 -64 78 0 60 84 98 122 55z"/>
<path d="M7485 501 c-48 -22 -75 -65 -75 -121 0 -83 56 -140 140 -140 43 0
110 29 110 48 0 5 -9 17 -19 26 -18 16 -22 16 -50 2 -41 -22 -58 -20 -86 9
-31 30 -32 73 -5 103 23 24 56 28 95 10 22 -10 29 -9 47 9 25 25 17 40 -28 59
-45 19 -81 17 -129 -5z"/>
<path d="M7834 506 c-35 -15 -44 -32 -44 -81 0 -39 16 -54 79 -76 54 -19 69
-49 24 -49 -16 0 -39 7 -51 16 -21 15 -25 15 -43 -2 -27 -25 -24 -39 15 -58
49 -23 117 -21 150 5 21 17 26 29 26 64 0 50 -14 64 -87 86 -42 12 -56 33 -30
42 6 2 28 -2 47 -10 32 -13 35 -12 51 9 21 27 17 36 -27 54 -41 17 -70 17
-110 0z"/>
<path d="M8994 506 c-95 -43 -103 -197 -14 -250 39 -22 117 -21 158 4 37 23
39 30 12 55 -20 18 -22 18 -49 2 -38 -22 -53 -21 -85 4 -55 43 -20 137 47 126
18 -3 41 -8 53 -12 15 -5 25 0 37 18 16 24 15 26 -9 42 -35 23 -112 29 -150
11z"/>
<path d="M4410 375 l0 -135 35 0 35 0 0 55 0 55 45 0 45 0 0 -55 0 -55 35 0
35 0 0 135 0 135 -35 0 -35 0 0 -50 0 -50 -45 0 -45 0 0 50 0 50 -35 0 -35 0
0 -135z"/>
<path d="M5310 375 l0 -135 100 0 100 0 0 30 0 30 -65 0 -65 0 0 105 0 105
-35 0 -35 0 0 -135z"/>
<path d="M5950 375 l0 -135 35 0 35 0 0 50 0 50 60 0 60 0 0 35 0 35 -60 0
c-53 0 -60 2 -60 20 0 18 7 20 70 20 l70 0 0 30 0 30 -105 0 -105 0 0 -135z"/>
<path d="M6290 375 l0 -135 35 0 c34 0 35 1 35 39 l0 38 50 5 c69 7 100 36
100 95 0 33 -6 50 -25 68 -22 23 -32 25 -110 25 l-85 0 0 -135z"/>
<path d="M6532 404 c4 -106 4 -106 37 -136 31 -28 38 -30 93 -26 92 7 102 22
106 158 l4 110 -36 0 -35 0 -3 -97 c-3 -97 -3 -98 -32 -108 -24 -8 -31 -6 -47
14 -15 19 -19 40 -19 107 l0 84 -36 0 -36 0 4 -106z"/>
<path d="M6810 375 l0 -135 80 0 c103 0 145 17 155 60 5 24 2 39 -13 60 -14
18 -17 31 -11 41 5 8 9 28 9 46 0 50 -28 63 -132 63 l-88 0 0 -135z"/>
<path d="M7080 375 l0 -135 100 0 100 0 0 30 0 30 -70 0 -70 0 0 105 0 105
-30 0 -30 0 0 -135z"/>
<path d="M7300 375 l0 -135 35 0 35 0 0 135 0 135 -35 0 -35 0 0 -135z"/>
<path d="M8030 375 l0 -135 105 0 105 0 0 30 0 30 -75 0 c-73 0 -75 1 -75 25
0 24 2 25 65 25 l65 0 0 30 0 30 -65 0 c-58 0 -65 2 -65 20 0 18 7 20 70 20
l70 0 0 30 0 30 -100 0 -100 0 0 -135z"/>
<path d="M8270 375 l0 -135 35 0 c35 0 35 0 35 45 0 59 19 59 60 0 28 -41 35
-45 70 -45 22 0 40 2 40 5 0 3 -14 24 -31 47 -25 35 -28 44 -16 53 43 31 49
104 12 140 -22 23 -32 25 -115 25 l-90 0 0 -135z"/>
<path d="M8527 468 c90 -227 87 -223 120 -226 18 -2 33 2 36 10 3 7 28 68 55
136 l51 122 -39 0 -38 0 -27 -72 c-15 -40 -31 -76 -34 -80 -4 -4 -19 28 -35
72 l-28 80 -39 0 -39 0 17 -42z"/>
<path d="M8810 375 l0 -135 35 0 35 0 0 135 0 135 -35 0 -35 0 0 -135z"/>
<path d="M9200 375 l0 -135 105 0 105 0 0 30 0 30 -75 0 c-73 0 -75 1 -75 25
0 24 2 25 65 25 l65 0 0 30 0 30 -65 0 c-58 0 -65 2 -65 20 0 18 7 20 70 20
l70 0 0 30 0 30 -100 0 -100 0 0 -135z"/>
</g>
</svg>
